<svg width="512" height="51" viewBox="0 0 512 51" fill="none" xmlns="http://www.w3.org/2000/svg">
<path d="M22.0511 1.03271C29.4659 1.03271 35.466 3.20956 40.0143 7.59618C44.5627 11.9828 46.8369 17.7891 46.8369 25.011C46.8369 32.2328 44.5627 38.0062 40.0143 42.3928C35.466 46.7795 29.4659 48.9892 22.0511 48.9892H0V1.03271H22.0511ZM21.5905 37.1832C28.5118 37.1832 31.9745 33.1258 31.9745 25.011C31.9745 16.8961 28.5118 13.2008 21.5905 13.2008H14.5047V37.1791H21.5905V37.1832Z" fill="#110014"/>
<path d="M52.5781 1.03271H67.0828V48.9892H52.5781V1.03271Z" fill="#110014"/>
<path d="M94.6074 50.014C87.8506 50.014 82.4427 48.4956 78.322 45.4957C74.2013 42.4959 72.1245 38.5701 72.1245 33.6527H86.3002C86.3002 37.348 88.8376 38.8623 94.6732 38.8623C99.748 38.8623 102.289 37.9076 102.289 36.0271C102.289 35.3357 102.158 34.8049 101.862 34.4098C101.566 34.0477 100.706 33.6198 99.2915 33.1218C97.8398 32.661 95.6643 32.2001 92.7979 31.768C85.7779 30.6446 80.7648 28.8669 77.7668 26.4226C74.7359 23.9824 73.2184 20.5504 73.2184 16.1638C73.2184 11.3492 75.2294 7.45643 79.2185 4.45246C83.2076 1.48552 88.4798 0 95.0063 0C101.533 0 106.41 1.48552 110.268 4.48538C114.125 7.48523 116.07 11.4439 116.07 16.3613H101.895C101.895 12.666 99.8508 11.1517 94.8747 11.1517C90.3263 11.1517 88.0521 12.1393 88.0521 14.1187C88.0521 15.1392 88.7101 15.9663 89.9973 16.5918C91.2845 17.2173 93.8219 17.8139 97.6465 18.4394C104.864 19.5628 109.91 21.3734 112.809 23.8836C115.708 26.3897 117.16 29.8545 117.16 34.2741C117.16 38.9899 115.083 42.8168 110.963 45.685C106.809 48.5532 101.372 50.0058 94.6115 50.0058L94.6074 50.014Z" fill="#110014"/>
<path d="M148.44 1.03271C153.12 1.03271 156.879 2.55116 159.712 5.61685C162.546 8.68255 163.965 12.707 163.965 17.7562C163.965 22.8053 162.546 26.8586 159.712 29.9284C156.879 32.9982 153.12 34.5455 148.44 34.5455H136.707V48.9933H122.203V1.03271H148.44ZM143.793 23.3938C147.486 23.3938 149.135 21.6449 149.135 17.785C149.135 13.9251 147.486 12.1762 143.793 12.1762H136.707V23.3897H143.793V23.3938Z" fill="#110014"/>
<path d="M168.353 1.03271H182.89V29.9284C182.89 35.2368 185.131 37.5165 190.638 37.5165C196.145 37.5165 198.419 35.2409 198.419 29.9284V1.03271H212.924V31.5744C212.924 37.1174 210.88 41.5698 206.825 44.9318C202.737 48.3308 197.333 50.0098 190.638 50.0098C183.943 50.0098 178.539 48.3267 174.484 44.9318C170.396 41.5657 168.353 37.1133 168.353 31.5744V1.03271Z" fill="#110014"/>
<path d="M260.785 1.03271V13.205H246.116V48.9933H231.611V13.205H216.942V1.03271H260.785Z" fill="#110014"/>
<path d="M279.673 36.8211H302.485V48.9933H265.173V1.03271H302.42V13.205H279.673V19.4721H301.396V30.2905H279.673V36.8211Z" fill="#110014"/>
<path d="M364.051 0C371.466 0 377.466 2.17685 382.014 6.56347C386.563 10.9501 388.837 16.7564 388.837 23.9783C388.837 31.2001 386.563 36.9735 382.014 41.3601C377.466 45.7467 371.466 47.9565 364.051 47.9565H342V0H364.051ZM363.59 36.1505C370.512 36.1505 373.974 32.0931 373.974 23.9783C373.974 15.8634 370.512 12.1681 363.59 12.1681H356.505V36.1464H363.59V36.1505Z" fill="#110014"/>
<path d="M394.578 0H409.083V47.9565H394.578V0Z" fill="#110014"/>
<path d="M452.001 0H466.308V47.9565H440.926L430.311 5.99971L430.805 26.3526V47.9565H416.498V0H442.011L452.461 41.2614L452.001 21.6039V0Z" fill="#110014"/>
<path d="M488.232 35.7882H511.043V47.9604H473.731V0.00390625H510.978V12.1762H488.232V18.4433H509.954V29.2617H488.232V35.7923V35.7882Z" fill="#110014"/>
</svg>
