<svg width="50" height="57" viewBox="0 0 101 107" fill="none" xmlns="http://www.w3.org/2000/svg">
<g clip-path="url(#clip0_2402_463)">
<path d="M83.7233 21.7701C79.2025 19.9507 73.7512 18.9478 67.2996 18.94L37.903 18.8933C35.6 18.8933 33.6149 20.495 33.1264 22.7497L19.0678 88.0756L4.86188 88.0522C1.76016 88.0522 -0.550629 85.1755 0.100734 82.1354L16.9586 3.85642C17.4394 1.60166 19.4322 0 21.7353 0L51.1319 0.0466502C70.161 0.0777503 80.5208 8.68471 83.731 21.7701H83.7233Z" fill="#99E2B4"/>
<path d="M83.3745 44.1391C78.0395 68.9492 60.6853 88.1458 32.1805 88.0991L19.0757 88.0758L33.1343 22.75C33.6228 20.4952 35.6079 18.8936 37.9032 18.8936L67.2998 18.9402C73.7514 18.948 79.2027 19.9432 83.7234 21.7703C85.3208 28.2858 85.1425 35.9131 83.3667 44.1391H83.3745Z" fill="#78C6A3"/>
<path d="M99.55 63.0399C94.215 87.8501 76.8608 107.047 48.3559 107L21.0452 106.953C17.9435 106.953 15.6327 104.077 16.2841 101.037L19.0679 88.0833L32.1727 88.1066C60.6776 88.1533 78.0317 68.9567 83.3667 44.1466C85.1347 35.9206 85.313 28.2933 83.7234 21.7778C99.17 28.0056 103.667 43.8978 99.55 63.0399Z" fill="#56AB91"/>
</g>
<defs>
<clipPath id="clip0_2402_463">
<rect width="101" height="107" fill="white"/>
</clipPath>
</defs>
</svg>
